<?xml version="1.0" standalone="no"?>
<!DOCTYPE svg PUBLIC "-//W3C//DTD SVG 20010904//EN"
 "http://www.w3.org/TR/2001/REC-SVG-20010904/DTD/svg10.dtd">
<svg version="1.0" xmlns="http://www.w3.org/2000/svg"
 width="308.7612359841165"
   height="304.915625"
   viewBox="0 0 106.00782394174519 104.68749999999999" preserveAspectRatio="xMidYMid meet">
<metadata>
Created by potrace 1.16, written by Peter Selinger 2001-2019
</metadata>
<g transform="translate(0.000000,1080.000000) scale(0.100000,-0.100000)"
fill="#000000" stroke="none">
<path d="M4517 6203 c-19 -18 -2 -33 47 -43 70 -14 136 -57 175 -113 17 -25
31 -48 31 -50 0 -2 34 -76 76 -163 42 -88 107 -224 144 -304 68 -146 112 -239
212 -450 30 -63 92 -195 138 -293 71 -151 87 -177 104 -175 16 2 37 44 103
210 l83 206 -80 167 c-44 92 -80 169 -80 170 0 2 -43 92 -95 200 -52 109 -95
199 -95 200 0 2 -34 74 -76 161 -42 88 -89 187 -105 222 l-28 62 -274 0 c-150
0 -277 -3 -280 -7z"/>
<path d="M6065 6198 c-3 -7 -6 -321 -7 -698 -3 -677 -3 -686 -24 -731 -24 -51
-64 -88 -106 -96 -19 -4 -28 -12 -28 -24 0 -19 12 -19 333 -17 283 3 332 5
332 18 0 8 -16 18 -39 24 -51 11 -121 81 -135 132 -7 26 -11 242 -11 633 0
587 0 595 21 639 24 48 62 77 116 87 25 4 33 11 31 23 -3 15 -27 17 -241 20
-185 2 -239 0 -242 -10z"/>
<path d="M4757 5122 c-24 -256 -135 -429 -288 -449 -30 -4 -39 -10 -39 -24 0
-18 15 -19 335 -19 328 0 335 0 335 20 0 12 -7 20 -17 20 -40 0 -92 22 -129
54 -77 65 -133 213 -150 394 -5 59 -10 72 -24 72 -14 0 -18 -13 -23 -68z"/>
</g>
</svg>
